<svg xmlns="http://www.w3.org/2000/svg" style="display: none">

    <!-- logout -->
    <symbol id="icon-logout" viewBox="0 0 16 16" fill="none">
        <path
            d="M13.5625 11.4375H12.4641C12.3891 11.4375 12.3187 11.4703 12.2719 11.5281C12.1625 11.6609 12.0453 11.7891 11.9219 11.9109C11.417 12.4163 10.819 12.819 10.1609 13.0969C9.47915 13.3848 8.74635 13.5326 8.00625 13.5312C7.25781 13.5312 6.53281 13.3844 5.85156 13.0969C5.19347 12.819 4.59547 12.4163 4.09062 11.9109C3.58487 11.4073 3.18159 10.8103 2.90312 10.1531C2.61406 9.47187 2.46875 8.74843 2.46875 7.99999C2.46875 7.25156 2.61562 6.52812 2.90312 5.84687C3.18125 5.18906 3.58125 4.59687 4.09062 4.08906C4.6 3.58124 5.19218 3.18124 5.85156 2.90312C6.53281 2.61562 7.25781 2.46874 8.00625 2.46874C8.75468 2.46874 9.47968 2.61406 10.1609 2.90312C10.8203 3.18124 11.4125 3.58124 11.9219 4.08906C12.0453 4.21249 12.1609 4.34062 12.2719 4.47187C12.3187 4.52968 12.3906 4.56249 12.4641 4.56249H13.5625C13.6609 4.56249 13.7219 4.45312 13.6672 4.37031C12.4687 2.50781 10.3719 1.27499 7.98906 1.28124C4.24531 1.29062 1.24375 4.32968 1.28125 8.06874C1.31875 11.7484 4.31562 14.7187 8.00625 14.7187C10.3828 14.7187 12.4703 13.4875 13.6672 11.6297C13.7203 11.5469 13.6609 11.4375 13.5625 11.4375ZM14.9516 7.90156L12.7344 6.15156C12.6516 6.08593 12.5312 6.14531 12.5312 6.24999V7.43749H7.625C7.55625 7.43749 7.5 7.49374 7.5 7.56249V8.43749C7.5 8.50624 7.55625 8.56249 7.625 8.56249H12.5312V9.74999C12.5312 9.85468 12.6531 9.91406 12.7344 9.84843L14.9516 8.09843C14.9665 8.08674 14.9786 8.0718 14.9869 8.05474C14.9952 8.03769 14.9995 8.01897 14.9995 7.99999C14.9995 7.98102 14.9952 7.9623 14.9869 7.94524C14.9786 7.92819 14.9665 7.91325 14.9516 7.90156Z"
            fill="white" />
    </symbol>

    <!-- rest_password -->
    <symbol id="icon-rest_password" viewBox="0 0 24 24" fill="none">
        <path
            d="M21.5 12C21.5 13.8789 20.9428 15.7157 19.899 17.2779C18.8551 18.8402 17.3714 20.0578 15.6355 20.7769C13.8996 21.4959 11.9895 21.684 10.1466 21.3175C8.30383 20.9509 6.61109 20.0461 5.28249 18.7175C3.95389 17.3889 3.0491 15.6962 2.68254 13.8534C2.31598 12.0105 2.50412 10.1004 3.22315 8.36451C3.94218 6.62861 5.15982 5.14491 6.72209 4.10104C8.28435 3.05717 10.1211 2.5 12 2.5C13.849 2.4994 15.658 3.03839 17.2052 4.05088C18.7523 5.06337 19.9704 6.50535 20.71 8.2M21.5 5.5L21.025 8.675L18 8"
            stroke="white" stroke-width="1.5" stroke-linecap="round" stroke-linejoin="round" />
        <path
            d="M10 11V9.5C10 8.96957 10.2107 8.46086 10.5858 8.08579C10.9609 7.71071 11.4696 7.5 12 7.5C12.5304 7.5 13.0391 7.71071 13.4142 8.08579C13.7893 8.46086 14 8.96957 14 9.5V11M11.25 16.5H12.75C13.923 16.5 14.51 16.5 14.913 16.19C15.017 16.1102 15.1102 16.017 15.19 15.913C15.5 15.509 15.5 14.923 15.5 13.75C15.5 12.577 15.5 11.99 15.19 11.587C15.1102 11.483 15.017 11.3898 14.913 11.31C14.509 11 13.923 11 12.75 11H11.25C10.077 11 9.49 11 9.087 11.31C8.98295 11.3898 8.88983 11.483 8.81 11.587C8.5 11.991 8.5 12.577 8.5 13.75C8.5 14.923 8.5 15.51 8.81 15.913C8.88983 16.017 8.98295 16.1102 9.087 16.19C9.491 16.5 10.077 16.5 11.25 16.5Z"
            stroke="white" stroke-width="1.5" stroke-linecap="round" stroke-linejoin="round" />
    </symbol>


    <!-- enquiry -->
    <symbol id="icon-enquiry" viewBox="0 0 20 20">
        <path
            d="M4.5 6.75C4.5 6.15326 4.73705 5.58097 5.15901 5.15901C5.58097 4.73705 6.15326 4.5 6.75 4.5C7.34674 4.5 7.91903 4.73705 8.34099 5.15901C8.76295 5.58097 9 6.15326 9 6.75C9 7.34674 8.76295 7.91903 8.34099 8.34099C7.91903 8.76295 7.34674 9 6.75 9C6.15326 9 5.58097 8.76295 5.15901 8.34099C4.73705 7.91903 4.5 7.34674 4.5 6.75ZM6.75 3.5C5.88805 3.5 5.0614 3.84241 4.4519 4.4519C3.84241 5.0614 3.5 5.88805 3.5 6.75C3.5 7.61195 3.84241 8.4386 4.4519 9.0481C5.0614 9.65759 5.88805 10 6.75 10C7.61195 10 8.4386 9.65759 9.0481 9.0481C9.65759 8.4386 10 7.61195 10 6.75C10 5.88805 9.65759 5.0614 9.0481 4.4519C8.4386 3.84241 7.61195 3.5 6.75 3.5ZM12.437 15.145C12.975 15.365 13.652 15.5 14.5 15.5C16.381 15.5 17.421 14.832 17.969 14.066C18.2555 13.6644 18.4348 13.1963 18.49 12.706C18.4949 12.6605 18.4982 12.6148 18.5 12.569V12.5C18.5 12.303 18.4612 12.108 18.3858 11.926C18.3104 11.744 18.1999 11.5786 18.0607 11.4393C17.9214 11.3001 17.756 11.1896 17.574 11.1142C17.392 11.0388 17.197 11 17 11H12.37C12.61 11.29 12.79 11.629 12.895 12H17C17.1326 12 17.2598 12.0527 17.3536 12.1464C17.4473 12.2402 17.5 12.3674 17.5 12.5V12.554L17.495 12.604C17.4575 12.9213 17.3405 13.2239 17.155 13.484C16.828 13.943 16.118 14.5 14.5 14.5C13.768 14.5 13.222 14.386 12.813 14.219C12.731 14.499 12.612 14.815 12.437 15.145ZM1.5 13C1.5 12.4696 1.71071 11.9609 2.08579 11.5858C2.46086 11.2107 2.96957 11 3.5 11H10C10.5304 11 11.0391 11.2107 11.4142 11.5858C11.7893 11.9609 12 12.4696 12 13V13.084L11.998 13.124L11.988 13.259C11.9171 13.9071 11.6869 14.5275 11.318 15.065C10.617 16.08 9.263 17 6.75 17C4.237 17 2.883 16.08 2.182 15.066C1.8129 14.5282 1.58271 13.9074 1.512 13.259C1.5063 13.2008 1.50229 13.1424 1.5 13.084V13ZM2.5 13.06V13.078L2.507 13.161C2.56126 13.6404 2.73226 14.0991 3.005 14.497C3.492 15.201 4.513 16 6.75 16C8.987 16 10.008 15.201 10.495 14.497C10.7677 14.0991 10.9387 13.6404 10.993 13.161C10.997 13.123 10.999 13.0953 10.999 13.078L11 13.061V13C11 12.7348 10.8946 12.4804 10.7071 12.2929C10.5196 12.1054 10.2652 12 10 12H3.5C3.23478 12 2.98043 12.1054 2.79289 12.2929C2.60536 12.4804 2.5 12.7348 2.5 13V13.06ZM13 7.5C13 7.10218 13.158 6.72064 13.4393 6.43934C13.7206 6.15804 14.1022 6 14.5 6C14.8978 6 15.2794 6.15804 15.5607 6.43934C15.842 6.72064 16 7.10218 16 7.5C16 7.89782 15.842 8.27936 15.5607 8.56066C15.2794 8.84196 14.8978 9 14.5 9C14.1022 9 13.7206 8.84196 13.4393 8.56066C13.158 8.27936 13 7.89782 13 7.5ZM14.5 5C13.837 5 13.2011 5.26339 12.7322 5.73223C12.2634 6.20107 12 6.83696 12 7.5C12 8.16304 12.2634 8.79893 12.7322 9.26777C13.2011 9.73661 13.837 10 14.5 10C15.163 10 15.7989 9.73661 16.2678 9.26777C16.7366 8.79893 17 8.16304 17 7.5C17 6.83696 16.7366 6.20107 16.2678 5.73223C15.7989 5.26339 15.163 5 14.5 5Z"
            fill="white" />
    </symbol>


    <!-- dashboard -->
    <symbol id="icon-dashboards" viewBox="0 0 16 18">
        <path d="M2 16H5V10H11V16H14V7L8 2.5L2 7V16ZM0 18V6L8 0L16 6V18H9V12H7V18H0Z" fill="white" />
    </symbol>


    <!-- member -->
    <symbol id="icon-member" viewBox="0 0 16 16" fill="none">
        <path
            d="M15 14C15 14 16 14 16 13C16 12 15 9 11 9C7 9 6 12 6 13C6 14 7 14 7 14H15ZM7.022 13L7 12.996C7.001 12.732 7.167 11.966 7.76 11.276C8.312 10.629 9.282 10 11 10C12.717 10 13.687 10.63 14.24 11.276C14.833 11.966 14.998 12.733 15 12.996L14.992 12.998L14.978 13H7.022ZM11 7C11.5304 7 12.0391 6.78929 12.4142 6.41421C12.7893 6.03914 13 5.53043 13 5C13 4.46957 12.7893 3.96086 12.4142 3.58579C12.0391 3.21071 11.5304 3 11 3C10.4696 3 9.96086 3.21071 9.58579 3.58579C9.21071 3.96086 9 4.46957 9 5C9 5.53043 9.21071 6.03914 9.58579 6.41421C9.96086 6.78929 10.4696 7 11 7ZM14 5C14 5.39397 13.9224 5.78407 13.7716 6.14805C13.6209 6.51203 13.3999 6.84274 13.1213 7.12132C12.8427 7.3999 12.512 7.62087 12.1481 7.77164C11.7841 7.9224 11.394 8 11 8C10.606 8 10.2159 7.9224 9.85195 7.77164C9.48797 7.62087 9.15726 7.3999 8.87868 7.12132C8.6001 6.84274 8.37913 6.51203 8.22836 6.14805C8.0776 5.78407 8 5.39397 8 5C8 4.20435 8.31607 3.44129 8.87868 2.87868C9.44129 2.31607 10.2044 2 11 2C11.7956 2 12.5587 2.31607 13.1213 2.87868C13.6839 3.44129 14 4.20435 14 5ZM6.936 9.28C6.53576 9.15491 6.1235 9.07213 5.706 9.033C5.47137 9.01012 5.23574 8.9991 5 9C1 9 0 12 0 13C0 13.6667 0.333333 14 1 14H5.216C5.06782 13.6878 4.9939 13.3455 5 13C5 11.99 5.377 10.958 6.09 10.096C6.333 9.802 6.616 9.527 6.936 9.28ZM4.92 10C4.32852 10.8894 4.00884 11.9319 4 13H1C1 12.74 1.164 11.97 1.76 11.276C2.305 10.64 3.252 10.02 4.92 10.001V10ZM1.5 5.5C1.5 4.70435 1.81607 3.94129 2.37868 3.37868C2.94129 2.81607 3.70435 2.5 4.5 2.5C5.29565 2.5 6.05871 2.81607 6.62132 3.37868C7.18393 3.94129 7.5 4.70435 7.5 5.5C7.5 6.29565 7.18393 7.05871 6.62132 7.62132C6.05871 8.18393 5.29565 8.5 4.5 8.5C3.70435 8.5 2.94129 8.18393 2.37868 7.62132C1.81607 7.05871 1.5 6.29565 1.5 5.5ZM4.5 3.5C3.96957 3.5 3.46086 3.71071 3.08579 4.08579C2.71071 4.46086 2.5 4.96957 2.5 5.5C2.5 6.03043 2.71071 6.53914 3.08579 6.91421C3.46086 7.28929 3.96957 7.5 4.5 7.5C5.03043 7.5 5.53914 7.28929 5.91421 6.91421C6.28929 6.53914 6.5 6.03043 6.5 5.5C6.5 4.96957 6.28929 4.46086 5.91421 4.08579C5.53914 3.71071 5.03043 3.5 4.5 3.5Z"
            fill="white" />
    </symbol>


    <!-- Expenses -->
    <symbol id="icon-Expenses" viewBox="0 0 24 24">
        <path fill-rule="evenodd" clip-rule="evenodd"
            d="M14.386 12.3335C14.2481 11.9435 13.9927 11.6058 13.655 11.367C13.3172 11.1281 12.9137 10.9999 12.5 11V10.5H11.5V11C10.9696 11 10.4609 11.2107 10.0858 11.5858C9.71071 11.9609 9.5 12.4696 9.5 13C9.5 13.5304 9.71071 14.0391 10.0858 14.4142C10.4609 14.7893 10.9696 15 11.5 15V17C11.065 17 10.6945 16.7225 10.5565 16.3335C10.536 16.2699 10.503 16.211 10.4594 16.1603C10.4157 16.1097 10.3624 16.0683 10.3025 16.0386C10.2426 16.0089 10.1773 15.9916 10.1106 15.9875C10.0439 15.9835 9.97699 15.9929 9.91396 16.0152C9.85092 16.0375 9.79299 16.0721 9.7436 16.1172C9.6942 16.1622 9.65434 16.2167 9.62637 16.2775C9.59841 16.3382 9.5829 16.4039 9.58078 16.4707C9.57865 16.5376 9.58995 16.6041 9.614 16.6665C9.75186 17.0565 10.0073 17.3942 10.345 17.633C10.6828 17.8719 11.0863 18.0001 11.5 18V18.5H12.5V18C13.0304 18 13.5391 17.7893 13.9142 17.4142C14.2893 17.0391 14.5 16.5304 14.5 16C14.5 15.4696 14.2893 14.9609 13.9142 14.5858C13.5391 14.2107 13.0304 14 12.5 14V12C12.7068 11.9999 12.9085 12.064 13.0774 12.1834C13.2463 12.3027 13.374 12.4715 13.443 12.6665C13.4872 12.7915 13.5792 12.8939 13.6988 12.9511C13.7581 12.9795 13.8223 12.9958 13.8879 12.9993C13.9535 13.0028 14.0191 12.9934 14.081 12.9715C14.1429 12.9496 14.1999 12.9158 14.2488 12.8719C14.2976 12.828 14.3373 12.7749 14.3656 12.7157C14.394 12.6564 14.4103 12.5922 14.4138 12.5266C14.4173 12.461 14.4079 12.3954 14.386 12.3335ZM11.5 12C11.2348 12 10.9804 12.1054 10.7929 12.2929C10.6054 12.4804 10.5 12.7348 10.5 13C10.5 13.2652 10.6054 13.5196 10.7929 13.7071C10.9804 13.8946 11.2348 14 11.5 14V12ZM12.5 17C12.7652 17 13.0196 16.8946 13.2071 16.7071C13.3946 16.5196 13.5 16.2652 13.5 16C13.5 15.7348 13.3946 15.4804 13.2071 15.2929C13.0196 15.1054 12.7652 15 12.5 15V17Z"
            fill="white" />
        <path fill-rule="evenodd" clip-rule="evenodd"
            d="M6.57651 4.3105C7.80351 3.71 9.81651 3 12.0195 3C14.1765 3 16.1365 3.6805 17.357 4.273L17.426 4.3065C17.794 4.4885 18.091 4.6605 18.3 4.8L16.453 7.5C20.711 11.853 24 20.9985 12.0195 20.9985C0.0390053 20.9985 3.23951 12.019 7.53451 7.5L5.69951 4.8C5.84101 4.7075 6.02051 4.6 6.23451 4.486C6.34051 4.429 6.45451 4.37017 6.57651 4.3105ZM15.266 7.4645L16.7445 5.303C15.3695 5.402 13.7335 5.725 12.1585 6.181C11.0335 6.506 9.78351 6.4565 8.62601 6.243C8.33431 6.18899 8.04462 6.12462 7.75751 6.05L8.7175 7.4635C10.775 8.196 13.208 8.196 15.266 7.4645ZM8.14001 8.315C10.5475 9.245 13.441 9.245 15.8485 8.314C16.8532 9.37356 17.6938 10.5774 18.3425 11.8855C19.0185 13.2645 19.3865 14.643 19.3265 15.831C19.2685 16.9775 18.8175 17.957 17.7875 18.685C16.714 19.4435 14.9085 19.9985 12.019 19.9985C9.12651 19.9985 7.31251 19.453 6.22901 18.703C5.19151 17.9845 4.73601 17.018 4.67151 15.887C4.60401 14.712 4.96401 13.3405 5.63751 11.952C6.28001 10.628 7.17651 9.3535 8.14001 8.315ZM7.56501 4.958C7.96501 5.077 8.38301 5.1805 8.80701 5.259C9.88201 5.457 10.96 5.486 11.88 5.2195C12.9521 4.90705 14.0425 4.66141 15.145 4.484C14.225 4.207 13.149 4 12.019 4C10.2965 4 8.69001 4.4805 7.56501 4.958Z"
            fill="white" />
    </symbol>

    <!-- bar  -->
    <symbol id="icon-bar" viewBox="0 0 10 10">
        <path fill-rule="evenodd" clip-rule="evenodd"
            d="M1.25 6.66667H8.75V7.5H1.25V6.66667ZM1.25 4.58333H8.75V5.41667H1.25V4.58333ZM1.25 2.5H8.75V3.33333H1.25V2.5Z"
            fill="#AAB6CC" />
    </symbol>
    <!-- notification -->
    <symbol id="icon-notification" viewBox="0 0 10 10">
        <path fill-rule="evenodd" clip-rule="evenodd"
            d="M5.41666 1.25C5.41666 1.13949 5.37276 1.03351 5.29462 0.955372C5.21648 0.877232 5.1105 0.833333 4.99999 0.833333C4.88949 0.833333 4.7835 0.877232 4.70536 0.955372C4.62722 1.03351 4.58333 1.13949 4.58333 1.25V1.5625H4.35124C3.90459 1.56247 3.47471 1.73266 3.14913 2.03843C2.82354 2.3442 2.62672 2.76256 2.59874 3.20833L2.50666 4.68083C2.47106 5.24217 2.28259 5.78308 1.96166 6.245C1.89526 6.34044 1.85468 6.45145 1.84388 6.56721C1.83309 6.68298 1.85243 6.79957 1.90004 6.90565C1.94765 7.01173 2.02189 7.10368 2.11556 7.17256C2.20923 7.24145 2.31913 7.28492 2.43458 7.29875L3.85416 7.46875V7.91667C3.85416 8.22056 3.97488 8.51201 4.18977 8.72689C4.40465 8.94178 4.6961 9.0625 4.99999 9.0625C5.30389 9.0625 5.59533 8.94178 5.81022 8.72689C6.0251 8.51201 6.14583 8.22056 6.14583 7.91667V7.46875L7.56541 7.29833C7.68079 7.28446 7.79061 7.24099 7.88422 7.17213C7.97783 7.10327 8.05204 7.01137 8.09964 6.90536C8.14723 6.79934 8.1666 6.68282 8.15586 6.56711C8.14511 6.4514 8.10463 6.34044 8.03833 6.245C7.71739 5.78308 7.52892 5.24217 7.49332 4.68083L7.40124 3.20875C7.37336 2.7629 7.17659 2.34444 6.85099 2.03858C6.5254 1.73273 6.09546 1.56248 5.64874 1.5625H5.41666V1.25ZM4.35124 2.1875C4.06356 2.18747 3.78669 2.29707 3.57698 2.494C3.36728 2.69094 3.24051 2.96039 3.22249 3.2475L3.13083 4.72C3.08798 5.39531 2.86118 6.04603 2.47499 6.60167C2.47019 6.60857 2.46725 6.6166 2.46647 6.62497C2.46568 6.63334 2.46708 6.64178 2.47051 6.64945C2.47395 6.65713 2.47932 6.66378 2.48609 6.66877C2.49286 6.67376 2.50081 6.67691 2.50916 6.67792L4.06624 6.865C4.68666 6.93917 5.31333 6.93917 5.93374 6.865L7.49083 6.67792C7.49918 6.67691 7.50712 6.67376 7.51389 6.66877C7.52066 6.66378 7.52603 6.65713 7.52947 6.64945C7.53291 6.64178 7.5343 6.63334 7.53352 6.62497C7.53273 6.6166 7.5298 6.60857 7.52499 6.60167C7.13895 6.04598 6.91229 5.39527 6.86958 4.72L6.77749 3.2475C6.75947 2.96039 6.63271 2.69094 6.423 2.494C6.2133 2.29707 5.93642 2.18747 5.64874 2.1875H4.35124ZM4.99999 8.4375C4.71249 8.4375 4.47916 8.20417 4.47916 7.91667V7.60417H5.52083V7.91667C5.52083 8.20417 5.28749 8.4375 4.99999 8.4375Z"
            fill="#AAB6CC" />
    </symbol>

    <symbol id="icon-right-arrow" viewBox="0 0 8 8">
        <path
            d="M7.33329 4.33333V3.66667H1.94263L3.25929 2.35L2.78796 1.87867L0.666626 4L2.78796 6.12133L3.25929 5.65L1.94263 4.33333H7.33329Z"
            fill="white" />
    </symbol>

    <symbol id="icon-plus" viewBox="0 0 24 24">
        <path d="M19 12.998H13V18.998H11V12.998H5V10.998H11V4.998H13V10.998H19V12.998Z" fill="white" />
    </symbol>

    <symbol id="icon-ruppess" viewBox="0 0 10 16" fill="currentColor">
        <g clip-path="url(#clip0_58_38)">
            <path
                d="M-1.54629e-05 2C-1.54629e-05 1.44687 0.446859 1 0.999985 1H9.24998C9.66561 1 9.99998 1.33437 9.99998 1.75C9.99998 2.16563 9.66561 2.5 9.24998 2.5H6.85311C7.40623 3.11875 7.79373 3.89375 7.93748 4.75H9.24998C9.66561 4.75 9.99998 5.08437 9.99998 5.5C9.99998 5.91563 9.66561 6.25 9.24998 6.25H7.93748C7.61248 8.19375 6.03748 9.71562 4.06873 9.96562L8.58123 13.1875C9.03123 13.5094 9.13436 14.1344 8.81248 14.5813C8.49061 15.0281 7.86561 15.1344 7.41873 14.8125L0.418735 9.8125C0.0656095 9.5625 -0.0843905 9.10938 0.0468595 8.69375C0.17811 8.27813 0.56561 8 0.999985 8H3.49998C4.61873 8 5.56561 7.26562 5.88436 6.25H0.749985C0.33436 6.25 -1.54629e-05 5.91563 -1.54629e-05 5.5C-1.54629e-05 5.08437 0.33436 4.75 0.749985 4.75H5.88436C5.56561 3.73438 4.61873 3 3.49998 3H0.999985C0.446859 3 -1.54629e-05 2.55313 -1.54629e-05 2Z"
                fill="currentColor" />
        </g>
        <defs>
            <clipPath id="clip0_58_38">
                <rect width="10" height="16" fill="currentColor" />
            </clipPath>
        </defs>
    </symbol>


    <symbol id="icon-delete" viewBox="0 0 24 24" fill="currentColor">
        <path
            d="M7 21C6.45 21 5.97933 20.8043 5.588 20.413C5.19667 20.0217 5.00067 19.5507 5 19V6H4V4H9V3H15V4H20V6H19V19C19 19.55 18.8043 20.021 18.413 20.413C18.0217 20.805 17.5507 21.0007 17 21H7ZM9 17H11V8H9V17ZM13 17H15V8H13V17Z"
            fill="currentColor" />
    </symbol>

    <symbol id="icon-add" viewBox="0 0 24 24" fill="currentColor">
        <path d="M19 12.998H13V18.998H11V12.998H5V10.998H11V4.998H13V10.998H19V12.998Z"
            fill="currentColor" />
    </symbol>

    <svg id="icon-update" viewBox="0 0 24 24" fill="none">
        <path
            d="M19.09 14.441V18.881C19.0898 19.5092 18.8401 20.1116 18.3959 20.5558C17.9516 21 17.3492 21.2497 16.721 21.25H5.12002C4.80777 21.2499 4.49863 21.188 4.21035 21.068C3.92208 20.9481 3.66035 20.7723 3.44021 20.5509C3.22007 20.3294 3.04586 20.0667 2.92758 19.7777C2.80931 19.4887 2.74931 19.1792 2.75102 18.867V7.27898C2.74916 6.96723 2.80919 6.6582 2.92764 6.36982C3.04608 6.08144 3.22059 5.81944 3.44103 5.59899C3.66148 5.37855 3.92348 5.20404 4.21186 5.0856C4.50025 4.96715 4.80927 4.90712 5.12102 4.90898H9.56002"
            stroke="currentColor" stroke-width="1.5" stroke-linecap="round" stroke-linejoin="round" />
        <path
            d="M19.09 8.99497L15.005 4.90897M6.83496 15.803V13.638C6.83696 13.281 6.97896 12.938 7.22996 12.685L16.762 3.15297C16.8884 3.02507 17.039 2.92354 17.205 2.85424C17.371 2.78495 17.5491 2.74927 17.729 2.74927C17.9088 2.74927 18.0869 2.78495 18.2529 2.85424C18.4189 2.92354 18.5695 3.02507 18.696 3.15297L20.847 5.30397C20.9749 5.43045 21.0764 5.58104 21.1457 5.74702C21.215 5.91301 21.2507 6.0911 21.2507 6.27097C21.2507 6.45084 21.215 6.62892 21.1457 6.79491C21.0764 6.9609 20.9749 7.11149 20.847 7.23797L11.315 16.77C11.0615 17.0217 10.7192 17.1636 10.362 17.165H8.19696C8.01803 17.1652 7.8408 17.1302 7.67544 17.0618C7.51007 16.9935 7.35982 16.8932 7.2333 16.7666C7.10677 16.6401 7.00646 16.4899 6.9381 16.3245C6.86975 16.1591 6.8347 15.9819 6.83496 15.803Z"
            stroke="currentColor" stroke-width="1.5" stroke-linecap="round" stroke-linejoin="round" />
    </svg>


    <symbol id="icon-filter" viewBox="0 0 24 24" fill="currentColor">
        <path d="M4.5 7H19.5M7 12H17M10 17H14" stroke="currentColor" stroke-width="1.5"
            stroke-linecap="round" stroke-linejoin="round" />
    </symbol>

    <symbol id="icon-cancel" viewBox="0 0 24 24" fill="none">
        <path d="M6.758 17.243L12.001 12L17.244 17.243M17.244 6.757L12 12L6.758 6.757"
            stroke="black" stroke-width="1.5" stroke-linecap="round" stroke-linejoin="round" />
    </symbol>

    <symbol id="icon-download" viewBox="0 0 24 24" fill="currentColor">
        <path
            d="M12 15.577L8.461 12.039L9.169 11.319L11.5 13.65V5H12.5V13.65L14.83 11.32L15.539 12.039L12 15.577ZM6.616 19C6.15533 19 5.771 18.846 5.463 18.538C5.155 18.23 5.00067 17.8453 5 17.384V14.961H6V17.384C6 17.538 6.064 17.6793 6.192 17.808C6.32 17.9367 6.461 18.0007 6.615 18H17.385C17.5383 18 17.6793 17.936 17.808 17.808C17.9367 17.68 18.0007 17.5387 18 17.384V14.961H19V17.384C19 17.8447 18.846 18.229 18.538 18.537C18.23 18.845 17.8453 18.9993 17.384 19H6.616Z"
            fill="currentColor" />
    </symbol>


</svg>